<svg width="1072" height="1018" viewBox="0 0 1072 1018" fill="none" xmlns="http://www.w3.org/2000/svg">
<path d="M610.09 0H635.36L651.605 2.7075L670.557 9.9275L684.095 17.1475L701.242 29.7825L715.682 44.2225L725.61 57.76L733.732 72.2L740.952 88.445L747.27 107.398L753.587 135.375L759.003 168.768L761.71 192.233L762.612 203.965V224.723L760.807 239.163L757.197 252.7L750.88 266.238L751.782 271.652L765.32 305.045L776.15 337.535L783.37 366.415L786.98 384.465L789.688 403.418L790.59 415.15V453.958L795.102 455.763L805.03 462.08L820.372 473.813L834.812 485.545L847.447 496.375L854.667 502.693L863.692 510.815L875.425 522.548L881.742 529.768L889.865 538.793L897.987 548.72L907.915 560.453L918.745 574.893L931.38 593.845L940.405 608.285L949.43 624.53L960.26 645.288L971.09 669.655L981.017 695.828L989.14 722L996.36 750.88L1001.77 782.468L1005.38 816.763L1006.29 831.203V849.253L1002.68 850.155H62.2725L61.37 849.253V825.788L65.8825 782.468L70.395 756.295L76.7125 729.22L83.9325 704.853L92.055 681.388L101.08 659.728L109.202 641.678L118.227 624.53L130.862 601.968L137.18 592.943L145.302 580.307L157.035 564.062L168.767 549.622L176.89 540.598L185.012 530.67L195.842 518.938L208.477 506.303L215.697 499.985L227.43 490.058L228.332 487.35L224.722 472.91L220.21 462.983L214.795 453.958L207.575 445.835L194.94 437.713L184.11 434.103H172.377L165.157 436.81L163.352 437.713H157.937L156.132 435.005L157.035 431.395L161.547 427.785L171.475 424.175H184.11L195.842 426.883L207.575 433.2L219.307 443.128L227.43 454.86L233.747 468.398L237.357 480.13L243.675 476.52L257.212 465.69L281.58 449.445L295.117 441.323L311.362 432.298L338.438 418.76L361.902 408.833L396.197 397.1L417.857 390.783L458.47 382.66L488.252 379.05L510.815 377.245H552.33L585.722 379.953L612.797 383.562L648.897 390.783L678.68 399.808L704.852 408.833L726.512 417.858L759.905 434.103L776.15 443.128L781.565 445.835L780.662 412.443L777.955 388.978L772.54 361.903L764.417 332.12L752.685 298.728L743.66 277.068L736.44 282.483L729.22 288.8L718.39 294.215L707.56 296.923H694.022L683.193 294.215L670.557 287.898L659.727 277.97L651.605 267.14L645.287 253.603L641.677 242.773L640.775 238.26L622.725 240.065L582.112 242.773L552.33 243.675L546.915 265.335L537.89 287.898L530.67 302.338L518.937 323.095L507.205 340.243L495.472 355.585L489.155 362.805L481.935 369.123L478.325 370.025L475.617 368.22V363.708L487.35 350.17L500.887 332.12L514.425 311.363L527.06 287.898L534.28 270.75L538.792 257.213L541.5 243.675V237.358L538.792 231.943L531.572 226.528L509.912 213.893L496.375 205.77L470.202 191.33L449.445 178.695L432.297 166.963L419.662 157.035L411.54 148.913L403.417 136.278L398.905 125.448L397.1 118.228V100.178L399.807 89.3475L404.32 80.3225L412.442 71.2975L421.467 65.8825L430.492 63.175H444.03L465.69 67.6875L481.935 71.2975L495.472 72.2L502.692 68.59L505.4 65.8825H507.205L509.01 62.2725L516.23 52.345L523.45 43.32L531.572 34.295L541.5 25.27L555.037 16.245L568.575 9.025L583.917 3.61L598.357 0.9025L610.09 0ZM608.285 8.1225L592.04 10.83L577.6 15.3425L563.16 21.66L551.427 28.88L544.207 34.295V36.1L540.597 37.905L533.377 45.125V46.93H531.572L523.45 56.8575L515.327 67.6875L507.205 76.7125L498.18 80.3225L486.447 81.225L470.202 78.5175L449.445 73.1025L431.395 71.2975L422.37 74.005L413.345 82.1275L407.027 94.7625L405.222 105.593L406.125 118.228L408.832 127.253L414.247 137.18L424.175 148.913L434.102 157.938L450.347 168.768L474.715 183.208L521.645 210.283L539.695 221.113L546.012 226.528L549.622 232.845L551.427 233.748H573.087L606.48 232.845L634.457 230.138L639.872 228.333V207.575L641.677 191.33L646.19 168.768L652.508 146.205L659.727 124.545L669.655 101.983L680.485 80.3225L684.997 73.1025L689.51 72.2L692.217 73.1025L691.315 78.5175L675.972 108.3L666.045 131.765L657.922 156.133L651.605 181.403L648.897 196.745L647.995 206.673V227.43L650.702 242.773L654.312 254.505L660.63 265.335L673.265 277.97L684.095 284.288L693.12 286.995H710.267L719.292 284.288L729.22 277.97L739.147 268.043L746.367 256.31L750.88 243.675L753.587 227.43L754.49 214.795L752.685 190.428L748.172 157.035L743.66 131.765L737.342 106.495L730.122 86.64L722.902 71.2975L712.072 55.0525L699.438 41.515L692.217 34.295L679.582 25.27L666.045 18.05L644.385 10.83L630.847 8.1225H608.285Z" fill="#FDBB5F"/>
<path d="M610.09 0H635.36L651.605 2.7075L670.558 9.9275L684.095 17.1475L701.243 29.7825L715.683 44.2225L725.61 57.76L733.733 72.2L740.953 88.445L747.27 107.397L753.588 135.375L759.003 168.768L761.71 192.232L762.613 203.965V224.722L760.808 239.162L757.198 252.7L750.88 266.237L751.783 271.652L765.32 305.045L776.15 337.535L783.37 366.415L786.98 384.465L789.688 403.417L790.59 415.15V458.47L786.078 484.642L780.663 506.302L770.735 537.89L757.198 577.6L749.978 602.87L745.465 623.628L742.758 642.58L741.855 663.337L742.758 678.68L746.368 699.438L751.783 715.682L759.003 730.122L767.125 741.855L777.053 752.685L790.59 765.32L799.615 773.443V775.247L802.323 776.15L810.445 786.077L817.665 798.712L820.373 806.835L821.275 820.372L817.665 824.885L805.03 829.397L765.32 838.422L742.758 842.032L717.488 844.74H685.9L676.875 841.13L671.46 834.812L668.753 828.495L665.143 804.128L655.215 726.512L645.288 647.995L637.165 589.332L631.75 558.647L624.53 529.767L620.018 516.23L611.895 496.375L606.48 486.447L599.26 475.617L591.138 464.787L575.795 449.445L564.063 441.322L548.72 433.2L535.183 428.688L513.523 425.077H494.57L467.495 429.59L446.738 435.908L432.298 443.127L416.053 452.152L401.613 462.982L390.783 472.91L382.66 481.033L374.538 490.96L361.903 507.205L349.268 526.157L339.34 543.305L323.998 573.99L314.973 594.747L305.948 619.115L296.02 648.897L288.8 675.07L281.58 707.56L276.165 740.05L272.555 770.735L271.653 783.37L270.75 816.762L331.218 818.568H417.858L471.105 815.86L503.595 813.152L521.645 809.542L529.768 805.03L533.378 803.225L537.89 794.2V785.175L534.28 779.76L525.255 775.247L506.303 769.832L496.375 766.222L491.863 762.612L488.253 756.295L486.448 750.88V738.245L491.863 713.878L501.79 677.777L507.205 654.312L509.01 641.677V616.407L506.303 601.967L500.888 587.527L494.57 576.698L489.155 569.477L484.643 573.99L478.325 582.112L470.203 589.332L458.47 596.552L444.03 601.065H426.883L418.76 599.26L411.54 594.747L407.028 589.332L406.125 581.21L409.735 571.282L415.15 564.062L422.37 556.842L431.395 551.427L444.03 546.915L449.445 546.013H462.983L473.813 548.72L484.643 553.232H486.448L490.058 543.305L499.083 518.938L501.79 516.23L506.303 517.133L507.205 518.035L506.303 527.06L499.985 545.11L494.57 557.745V562.258L501.79 570.38L507.205 579.405L513.523 593.845L517.133 607.383L518.938 623.628V633.555L516.23 657.02L511.718 677.777L503.595 708.462L496.375 737.342L495.473 741.855V749.977L498.18 755.392L503.595 759.905L518.035 763.515L534.28 768.027L541.5 773.443L546.013 779.76L547.818 786.077V795.102L543.305 804.128L536.988 811.347L524.353 818.568L516.23 821.275L494.57 823.982L430.493 827.592L408.833 828.495H331.218L261.725 824.885L247.285 819.47L233.748 812.25L224.723 804.128L216.6 794.2L210.283 781.565L206.673 770.735L203.965 750.88V735.537L206.673 712.975L215.698 669.655L221.113 641.677L225.625 611.895L229.235 576.698L230.138 560.452V502.692L228.333 487.35L224.723 472.91L220.21 462.982L214.795 453.957L207.575 445.835L194.94 437.712L184.11 434.102H172.378L165.158 436.81L163.353 437.712H157.938L156.133 435.005L157.035 431.395L161.548 427.785L171.475 424.175H184.11L195.843 426.882L207.575 433.2L219.308 443.127L227.43 454.86L233.748 468.397L237.358 480.13L243.675 476.52L257.213 465.69L281.58 449.445L295.118 441.322L311.363 432.297L338.438 418.76L361.903 408.832L396.198 397.1L417.858 390.783L458.47 382.66L488.253 379.05L510.815 377.245H552.33L585.723 379.952L612.798 383.562L648.898 390.783L678.68 399.807L704.853 408.832L726.513 417.857L759.905 434.102L776.15 443.127L781.565 445.835L780.663 412.442L777.955 388.977L772.54 361.902L764.418 332.12L752.685 298.727L743.66 277.068L736.44 282.482L729.22 288.8L718.39 294.215L707.56 296.922H694.023L683.193 294.215L670.558 287.897L659.728 277.97L651.605 267.14L645.288 253.602L641.678 242.772L640.775 238.26L622.725 240.065L582.113 242.772L552.33 243.675L546.915 265.335L537.89 287.897L530.67 302.337L518.938 323.095L507.205 340.242L495.473 355.585L489.155 362.805L481.935 369.122L478.325 370.025L475.618 368.22V363.707L487.35 350.17L500.888 332.12L514.425 311.362L527.06 287.897L534.28 270.75L538.793 257.212L541.5 243.675V237.357L538.793 231.942L531.573 226.527L509.913 213.892L496.375 205.77L470.203 191.33L449.445 178.695L432.298 166.962L419.663 157.035L411.54 148.912L403.418 136.277L398.905 125.447L397.1 118.227V100.177L399.808 89.3475L404.32 80.3225L412.443 71.2975L421.468 65.8825L430.493 63.175H444.03L465.69 67.6875L481.935 71.2975L495.473 72.2L502.693 68.59L505.4 65.8825H507.205L509.01 62.2725L516.23 52.345L523.45 43.32L531.573 34.295L541.5 25.27L555.038 16.245L568.575 9.025L583.918 3.61L598.358 0.9025L610.09 0ZM608.285 8.1225L592.04 10.83L577.6 15.3425L563.16 21.66L551.428 28.88L544.208 34.295V36.1L540.598 37.905L533.378 45.125V46.93H531.573L523.45 56.8575L515.328 67.6875L507.205 76.7125L498.18 80.3225L486.448 81.225L470.203 78.5175L449.445 73.1025L431.395 71.2975L422.37 74.005L413.345 82.1275L407.028 94.7625L405.223 105.592L406.125 118.227L408.833 127.252L414.248 137.18L424.175 148.912L434.103 157.938L450.348 168.768L474.715 183.207L521.645 210.283L539.695 221.112L546.013 226.527L549.623 232.845L551.428 233.747H573.088L606.48 232.845L634.458 230.137L639.873 228.332V207.575L641.678 191.33L646.19 168.768L652.508 146.205L659.728 124.545L669.655 101.982L680.485 80.3225L684.997 73.1025L689.51 72.2L692.218 73.1025L691.315 78.5175L675.973 108.3L666.045 131.765L657.923 156.132L651.605 181.402L648.898 196.745L647.995 206.673V227.43L650.703 242.772L654.313 254.505L660.63 265.335L673.265 277.97L684.095 284.288L693.12 286.995H710.268L719.293 284.288L729.22 277.97L739.148 268.042L746.368 256.31L750.88 243.675L753.588 227.43L754.49 214.795L752.685 190.427L748.173 157.035L743.66 131.765L737.343 106.495L730.123 86.64L722.903 71.2975L712.073 55.0525L699.438 41.515L692.218 34.295L679.583 25.27L666.045 18.05L644.385 10.83L630.848 8.1225H608.285Z" fill="#FDBB5F"/>
<path d="M610.09 0H635.36L651.605 2.7075L670.558 9.9275L684.095 17.1475L701.243 29.7825L715.683 44.2225L725.61 57.76L733.733 72.2L740.953 88.445L747.27 107.397L753.588 135.375L759.003 168.768L761.71 192.232L762.613 203.965V224.722L760.808 239.162L757.198 252.7L750.88 266.237L751.783 271.652L765.32 305.045L776.15 337.535L783.37 366.415L786.98 384.465L789.688 403.417L790.59 415.15V458.47L786.078 484.642L780.663 506.302L770.735 537.89L757.198 577.6L749.978 602.87L745.465 623.628L742.758 642.58L741.855 663.337L742.758 678.68L746.368 699.438L751.783 715.682L759.003 730.122L767.125 741.855L777.053 752.685L790.59 765.32L799.615 773.443V775.247L802.323 776.15L810.445 786.077L817.665 798.712L820.373 806.835L821.275 820.372L817.665 824.885L805.03 829.397L765.32 838.422L742.758 842.032L717.488 844.74H685.9L676.875 841.13L671.46 834.812L668.753 828.495L665.143 804.128L655.215 726.512L645.288 647.995L637.165 589.332L631.75 558.647L624.53 529.767L620.018 516.23L611.895 496.375L606.48 486.447L599.26 475.617L591.138 464.787L575.795 449.445L564.063 441.322L548.72 433.2L535.183 428.688L513.523 425.077H494.57L467.495 429.59L446.738 435.908L432.298 443.127L416.053 452.152L401.613 462.982L390.783 472.91L382.66 481.033L374.538 490.96L361.903 507.205L349.268 526.157L339.34 543.305L323.998 573.99L314.973 594.747L305.948 619.115L296.02 648.897L288.8 675.07L281.58 707.56L276.165 740.05L272.555 770.735L271.653 783.37L270.75 816.762L331.218 818.568H417.858L471.105 815.86L503.595 813.152L521.645 809.542L529.768 805.03L533.378 803.225L537.89 794.2V785.175L534.28 779.76L525.255 775.247L506.303 769.832L496.375 766.222L491.863 762.612L488.253 756.295L486.448 750.88V738.245L491.863 713.878L501.79 677.777L507.205 654.312L509.01 641.677V616.407L506.303 601.967L500.888 587.527L494.57 576.698L489.155 569.477L484.643 573.99L478.325 582.112L470.203 589.332L458.47 596.552L444.03 601.065H426.883L418.76 599.26L411.54 594.747L407.028 589.332L406.125 581.21L409.735 571.282L415.15 564.062L422.37 556.842L431.395 551.427L444.03 546.915L449.445 546.013H462.983L473.813 548.72L484.643 553.232H486.448L490.058 543.305L499.083 518.938L501.79 516.23L506.303 517.133L507.205 518.035L506.303 527.06L499.985 545.11L494.57 557.745V562.258L501.79 570.38L507.205 579.405L513.523 593.845L517.133 607.383L518.938 623.628V633.555L516.23 657.02L511.718 677.777L503.595 708.462L496.375 737.342L495.473 741.855V749.977L498.18 755.392L503.595 759.905L518.035 763.515L534.28 768.027L541.5 773.443L546.013 779.76L547.818 786.077V795.102L543.305 804.128L536.988 811.347L524.353 818.568L516.23 821.275L494.57 823.982L430.493 827.592L408.833 828.495H331.218L261.725 824.885L247.285 819.47L233.748 812.25L224.723 804.128L216.6 794.2L210.283 781.565L206.673 770.735L203.965 750.88V735.537L206.673 712.975L215.698 669.655L221.113 641.677L225.625 611.895L229.235 576.698L230.138 560.452V502.692L228.333 487.35L224.723 472.91L220.21 462.982L214.795 453.957L207.575 445.835L194.94 437.712L184.11 434.102H172.378L165.158 436.81L163.353 437.712H157.938L156.133 435.005L157.035 431.395L161.548 427.785L171.475 424.175H184.11L195.843 426.882L207.575 433.2L219.308 443.127L227.43 454.86L233.748 468.397L237.358 481.935L239.163 496.375L240.065 513.522V540.597L238.26 580.307L234.65 615.505L228.333 656.117L214.795 720.195L212.99 734.635V754.49L215.698 768.93L221.113 783.37L229.235 796.005L236.455 803.225L249.09 810.445L256.31 813.152L261.725 814.055V793.297L264.433 757.197L268.945 723.805L274.36 694.925L280.678 667.85L287.898 642.58L298.728 610.09L309.558 582.112L323.998 551.427L336.633 527.962L345.658 513.522L356.488 498.18L363.708 489.155L374.538 476.52L382.66 467.495L389.88 461.177L400.71 452.152L416.955 440.42L431.395 432.297L449.445 425.077L467.495 419.662L481.033 416.955L490.96 416.052H514.425L531.573 418.76L549.623 424.175L565.868 431.395L574.893 436.81L583.015 443.127L599.26 459.372L610.09 474.715L617.31 487.35L625.433 504.497L632.653 524.352L639.873 552.33L645.288 581.21L652.508 632.652L663.338 716.585L674.168 799.615L677.778 824.885L681.388 833.007L685.9 835.715H701.243L735.538 833.007L762.613 828.495L790.59 822.177L810.445 816.762H812.25L811.348 807.737L804.128 793.297L796.005 784.272L794.2 780.662H792.395L787.883 775.247L780.663 768.93L774.345 762.612L767.125 756.295L757.198 744.562L749.075 732.83L741.855 717.487L736.44 699.438L733.733 684.095L732.83 674.167V648.897L735.538 624.53L740.953 599.26L750.88 566.77L768.93 512.62L776.15 483.74L780.663 456.665L781.565 445.835L780.663 412.442L777.955 388.977L772.54 361.902L764.418 332.12L752.685 298.727L743.66 277.068L736.44 282.482L729.22 288.8L718.39 294.215L707.56 296.922H694.023L683.193 294.215L670.558 287.897L659.728 277.97L651.605 267.14L645.288 253.602L641.678 242.772L640.775 238.26L622.725 240.065L582.113 242.772L552.33 243.675L546.915 265.335L537.89 287.897L530.67 302.337L518.938 323.095L507.205 340.242L495.473 355.585L489.155 362.805L481.935 369.122L478.325 370.025L475.618 368.22V363.707L487.35 350.17L500.888 332.12L514.425 311.362L527.06 287.897L534.28 270.75L538.793 257.212L541.5 243.675V237.357L538.793 231.942L531.573 226.527L509.913 213.892L496.375 205.77L470.203 191.33L449.445 178.695L432.298 166.962L419.663 157.035L411.54 148.912L403.418 136.277L398.905 125.447L397.1 118.227V100.177L399.808 89.3475L404.32 80.3225L412.443 71.2975L421.468 65.8825L430.493 63.175H444.03L465.69 67.6875L481.935 71.2975L495.473 72.2L502.693 68.59L505.4 65.8825H507.205L509.01 62.2725L516.23 52.345L523.45 43.32L531.573 34.295L541.5 25.27L555.038 16.245L568.575 9.025L583.918 3.61L598.358 0.9025L610.09 0ZM608.285 8.1225L592.04 10.83L577.6 15.3425L563.16 21.66L551.428 28.88L544.208 34.295V36.1L540.598 37.905L533.378 45.125V46.93H531.573L523.45 56.8575L515.328 67.6875L507.205 76.7125L498.18 80.3225L486.448 81.225L470.203 78.5175L449.445 73.1025L431.395 71.2975L422.37 74.005L413.345 82.1275L407.028 94.7625L405.223 105.592L406.125 118.227L408.833 127.252L414.248 137.18L424.175 148.912L434.103 157.938L450.348 168.768L474.715 183.207L521.645 210.283L539.695 221.112L546.013 226.527L549.623 232.845L551.428 233.747H573.088L606.48 232.845L634.458 230.137L639.873 228.332V207.575L641.678 191.33L646.19 168.768L652.508 146.205L659.728 124.545L669.655 101.982L680.485 80.3225L684.997 73.1025L689.51 72.2L692.218 73.1025L691.315 78.5175L675.973 108.3L666.045 131.765L657.923 156.132L651.605 181.402L648.898 196.745L647.995 206.673V227.43L650.703 242.772L654.313 254.505L660.63 265.335L673.265 277.97L684.095 284.288L693.12 286.995H710.268L719.293 284.288L729.22 277.97L739.148 268.042L746.368 256.31L750.88 243.675L753.588 227.43L754.49 214.795L752.685 190.427L748.173 157.035L743.66 131.765L737.343 106.495L730.123 86.64L722.903 71.2975L712.073 55.0525L699.438 41.515L692.218 34.295L679.583 25.27L666.045 18.05L644.385 10.83L630.848 8.1225H608.285Z" fill="#030202"/>
<path d="M540.598 871.815H590.235L597.455 873.62L604.675 879.035L609.188 888.06L610.993 896.182L611.895 914.232L610.09 926.867L606.48 934.087L601.065 939.502L602.87 943.112L607.383 948.527L609.188 953.04V1015.31L606.48 1016.21H581.21L580.308 1014.41L579.405 953.04L574.893 951.235L570.38 950.332V1015.31L569.478 1016.21H541.5L540.598 1015.31V871.815ZM571.283 897.987L570.38 902.5V924.16L571.283 925.062H577.6L581.21 923.257L583.015 915.135V905.207L581.21 899.792L577.6 897.987H571.283Z" fill="#020101"/>
<path d="M836.618 870.01H846.545L855.57 871.815L866.4 877.23L872.718 884.45L876.328 892.573L877.23 896.183V928.673H849.253L848.35 926.868L847.448 900.695L845.643 897.988H838.423L836.618 901.598L835.715 960.26L836.618 986.433L838.423 989.14H844.74L847.448 986.433L849.253 953.943H877.23L878.133 955.748V981.92L876.328 995.458L870.913 1006.29L864.595 1011.7L857.375 1015.31L849.253 1017.12H833.91L824.885 1014.41L816.763 1008.09L812.25 1002.68L807.738 992.75L806.835 988.238V900.695L810.445 888.963L815.86 879.938L825.788 872.718L836.618 870.01Z" fill="#040202"/>
<path d="M1027.95 870.01H1040.58L1051.41 872.718L1060.44 878.133L1065.85 886.255L1069.46 896.183L1071.27 911.525L1070.37 912.428L1053.22 913.33H1041.49L1040.58 908.818L1039.68 900.695L1037.88 897.988H1031.56L1029.75 900.695V907.013L1033.36 914.233L1059.54 940.405L1065.85 949.43L1069.46 956.65L1071.27 963.87V986.433L1068.56 997.263L1064.05 1006.29L1057.73 1012.61L1049.61 1016.22L1045.1 1017.12H1027.95L1016.22 1013.51L1007.19 1005.39L1002.68 995.458L1000.87 986.433V962.065L1027.05 961.163L1029.75 963.87V980.115L1031.56 988.238L1032.46 989.14H1039.68L1041.49 986.433V973.798L1037.88 963.87L1029.75 954.845L1015.31 940.405L1006.29 928.673L1001.78 918.745L1000.87 915.135V897.988L1004.48 886.255L1009.9 879.035L1015.31 874.523L1023.44 870.913L1027.95 870.01Z" fill="#030101"/>
<path d="M639.873 871.815H667.85L675.07 937.697L676.875 963.87L678.68 953.942L686.803 873.62L687.705 871.815H714.78L712.975 893.475L701.243 986.432L697.633 1014.41L694.925 1016.21H658.825L657.02 1013.51L653.41 987.335L640.775 884.45L639.873 871.815Z" fill="#030101"/>
<path d="M372.733 870.01H381.758L392.588 871.815L403.418 877.23L408.833 884.45L412.443 892.573L414.248 901.598V912.428L388.075 913.33L385.368 912.428L383.563 897.988H375.44L373.635 900.695V907.915L378.148 915.135L382.66 919.648V921.453L386.27 923.258L403.418 940.405L409.735 949.43L413.345 956.65L415.15 963.87V985.53L413.345 994.555L409.735 1002.68L406.125 1008.09L399.808 1013.51L392.588 1016.22L387.173 1017.12H372.733L362.805 1014.41L355.585 1009.9L350.17 1003.58L346.56 995.458L344.755 987.335L343.853 963.87L344.755 962.065H372.733L373.635 981.92L376.343 989.14L380.855 990.043L384.465 988.238L385.368 986.433V974.7L382.66 965.675L379.05 960.26L361.903 943.113L353.78 933.185L347.463 923.258L344.755 915.135V897.988L348.365 886.255L354.683 878.133L362.805 872.718L367.318 870.913L372.733 870.01Z" fill="#030101"/>
<path d="M0 871.815H44.2225L52.345 873.62L61.37 879.937L66.785 888.962L69.4925 898.89L70.395 905.207V925.965L67.6875 939.502L62.2725 950.332L55.955 955.747L51.4425 957.552L46.0275 958.455L29.7825 959.357L28.88 971.09V1014.41L24.3675 1016.21H0.9025L0 1015.31V871.815ZM29.7825 897.987L28.88 898.89L27.9775 916.037V928.672L28.88 932.282H35.1975L40.6125 927.77L41.515 924.16V907.915L38.8075 899.792L35.1975 897.987H29.7825Z" fill="#030101"/>
<path d="M448.542 871.815H505.4L506.302 872.717V898.89L495.472 899.792H478.325V927.77H505.4V953.942L503.595 954.845H478.325V988.237H508.107V1015.31L506.302 1016.21H449.445L448.542 1015.31V871.815Z" fill="#010001"/>
<path d="M910.623 871.815H968.383V898.89L941.308 899.792L940.405 927.77H967.48V953.942L965.675 954.845H940.405V988.237H970.188V1015.31L967.48 1016.21H911.525L910.623 1015.31V871.815Z" fill="#010001"/>
<path d="M103.788 871.815H158.84L160.645 872.717V898.89H132.668V927.77H158.84L159.743 928.672V953.942L157.938 954.845H132.668V988.237H161.548L162.45 989.14V1015.31L161.548 1016.21H103.788L102.885 1015.31V872.717L103.788 871.815Z" fill="#020101"/>
<path d="M192.232 871.815H252.7L254.505 872.717V897.987L253.602 898.89L238.26 899.792L237.357 1015.31L228.332 1016.21H209.38L208.477 1015.31L207.575 963.87V899.792L191.33 898.89V872.717L192.232 871.815Z" fill="#050302"/>
<path d="M745.465 871.815H772.54L773.442 878.132L772.54 1015.31L766.222 1016.21H745.465L744.562 944.917V872.717L745.465 871.815Z" fill="#030202"/>
<path d="M449.445 555.038H462.983L475.618 558.648L481.033 561.355L479.228 565.868L472.008 575.795L469.3 576.698V578.503L460.275 585.723L445.835 592.04L437.713 593.845L427.785 592.943L418.76 590.235L415.15 586.625V580.308L419.663 572.185L425.98 564.965L435.005 559.55L444.933 555.94L449.445 555.038Z" fill="#FDBB5F"/>
</svg>
